<svg width="66" height="15" viewBox="0 0 66 15" fill="none" xmlns="http://www.w3.org/2000/svg">
<path d="M65.1703 11.9011C64.9581 11.9011 64.7913 11.8405 64.67 11.7192C64.5588 11.5979 64.5032 11.4311 64.5032 11.2188V10.9156C64.5032 10.6932 64.5588 10.5213 64.67 10.4C64.7913 10.2787 64.9581 10.2181 65.1703 10.2181H65.2916C65.514 10.2181 65.6808 10.2787 65.792 10.4C65.9032 10.5213 65.9588 10.6932 65.9588 10.9156V11.2188C65.9588 11.4311 65.9032 11.5979 65.792 11.7192C65.6808 11.8405 65.514 11.9011 65.2916 11.9011H65.1703Z" fill="#D752B2"/>
<path d="M44.2603 1.99988C44.4321 2.09085 44.5282 2.22732 44.5484 2.40927C44.5787 2.59122 44.5332 2.75801 44.4119 2.90964C44.3209 3.04105 44.2047 3.11181 44.0632 3.12191C43.9217 3.13202 43.7801 3.1017 43.6386 3.03094C43.305 2.82877 42.9462 2.67209 42.5621 2.56089C42.178 2.43959 41.7736 2.37894 41.3491 2.37894C40.7527 2.37894 40.2068 2.48508 39.7115 2.69736C39.2162 2.89953 38.7866 3.18762 38.4227 3.56163C38.0588 3.93565 37.7757 4.38042 37.5736 4.89595C37.3714 5.41148 37.2703 5.98261 37.2703 6.60933C37.2703 7.27649 37.3764 7.87289 37.5887 8.39853C37.801 8.92417 38.0891 9.37399 38.453 9.74801C38.827 10.1119 39.2566 10.3899 39.7418 10.582C40.2371 10.774 40.7729 10.87 41.3491 10.87C41.7635 10.87 42.1628 10.8144 42.5469 10.7033C42.931 10.5921 43.2949 10.4303 43.6386 10.218C43.7801 10.1473 43.9217 10.122 44.0632 10.1422C44.2047 10.1625 44.326 10.2332 44.4271 10.3545C44.5484 10.5162 44.5939 10.6881 44.5635 10.87C44.5332 11.0419 44.4372 11.1682 44.2755 11.2491C44.0227 11.4007 43.7347 11.5423 43.4112 11.6737C43.0877 11.795 42.7491 11.891 42.3953 11.9618C42.0516 12.0325 41.7029 12.0679 41.3491 12.0679C40.6213 12.0679 39.9339 11.9415 39.2869 11.6888C38.64 11.4361 38.0689 11.0722 37.5736 10.5971C37.0782 10.122 36.684 9.55089 36.3909 8.88373C36.1078 8.20647 35.9663 7.44833 35.9663 6.60933C35.9663 5.82087 36.1028 5.09812 36.3757 4.44107C36.6486 3.78402 37.0277 3.21289 37.5129 2.72768C38.0082 2.24248 38.5793 1.86341 39.2263 1.59048C39.8833 1.31756 40.5909 1.18109 41.3491 1.18109C41.8747 1.18109 42.3852 1.25185 42.8805 1.39337C43.3859 1.53489 43.8458 1.73706 44.2603 1.99988Z" fill="#6A1FE6"/>
<path d="M52.6381 4.00135C52.81 4.00135 52.9515 4.062 53.0627 4.1833C53.184 4.29449 53.2447 4.43601 53.2447 4.60786V11.2946C53.2447 11.4664 53.184 11.613 53.0627 11.7343C52.9515 11.8556 52.81 11.9163 52.6381 11.9163C52.4562 11.9163 52.3096 11.8556 52.1984 11.7343C52.0872 11.613 52.0316 11.4664 52.0316 11.2946V9.85414L52.3197 9.82382C52.3197 10.0462 52.2439 10.2888 52.0923 10.5516C51.9407 10.8144 51.7334 11.0621 51.4706 11.2946C51.2078 11.517 50.8944 11.704 50.5305 11.8556C50.1767 11.9971 49.7926 12.0679 49.3782 12.0679C48.6908 12.0679 48.0742 11.891 47.5283 11.5372C46.9825 11.1733 46.5478 10.683 46.2243 10.0664C45.911 9.44981 45.7543 8.74727 45.7543 7.95881C45.7543 7.16024 45.911 6.4577 46.2243 5.8512C46.5478 5.23458 46.9825 4.75443 47.5283 4.41074C48.0742 4.05695 48.6807 3.88005 49.3478 3.88005C49.7825 3.88005 50.1868 3.95081 50.5609 4.09233C50.9349 4.23384 51.2583 4.4259 51.5313 4.66851C51.8143 4.91111 52.0316 5.17898 52.1833 5.47213C52.345 5.76527 52.4259 6.05842 52.4259 6.35157L52.0316 6.26059V4.60786C52.0316 4.43601 52.0872 4.29449 52.1984 4.1833C52.3096 4.062 52.4562 4.00135 52.6381 4.00135ZM49.5146 10.9459C50.0201 10.9459 50.4648 10.8144 50.849 10.5516C51.2432 10.2888 51.5464 9.93501 51.7587 9.49024C51.9811 9.03536 52.0923 8.52488 52.0923 7.95881C52.0923 7.40284 51.9811 6.90248 51.7587 6.4577C51.5464 6.00282 51.2432 5.64903 50.849 5.39632C50.4648 5.1335 50.0201 5.00209 49.5146 5.00209C49.0193 5.00209 48.5746 5.12844 48.1803 5.38115C47.7962 5.63387 47.4929 5.98261 47.2706 6.42738C47.0482 6.87215 46.937 7.38263 46.937 7.95881C46.937 8.52488 47.0431 9.03536 47.2554 9.49024C47.4778 9.93501 47.781 10.2888 48.1652 10.5516C48.5594 10.8144 49.0092 10.9459 49.5146 10.9459Z" fill="#6A1FE6"/>
<path d="M59.3591 3.95586C60.0465 3.95586 60.6631 4.1277 61.209 4.47139C61.7548 4.81508 62.1844 5.29018 62.4978 5.89668C62.8213 6.50319 62.983 7.20068 62.983 7.98913C62.983 8.76749 62.8213 9.46497 62.4978 10.0816C62.1844 10.6881 61.7548 11.1682 61.209 11.522C60.6732 11.8657 60.0667 12.0376 59.3895 12.0376C59.0154 12.0376 58.6616 11.982 58.3281 11.8708C58.0046 11.7495 57.7064 11.5979 57.4335 11.4159C57.1706 11.2238 56.9483 11.0116 56.7663 10.7791C56.5844 10.5365 56.4529 10.2989 56.3721 10.0664L56.7057 9.85414V14.3271C56.7057 14.499 56.6501 14.6456 56.5389 14.7669C56.4277 14.8882 56.2811 14.9488 56.0991 14.9488C55.9273 14.9488 55.7807 14.8882 55.6594 14.7669C55.5482 14.6557 55.4926 14.5091 55.4926 14.3271V4.63818C55.4926 4.46634 55.5482 4.32482 55.6594 4.21363C55.7807 4.09233 55.9273 4.03167 56.0991 4.03167C56.2811 4.03167 56.4277 4.09233 56.5389 4.21363C56.6501 4.32482 56.7057 4.46634 56.7057 4.63818V5.98766L56.4782 5.86636C56.549 5.61365 56.6703 5.37105 56.8421 5.13855C57.0241 4.90606 57.2414 4.70389 57.4941 4.53204C57.7569 4.35009 58.045 4.20857 58.3584 4.10749C58.6819 4.0064 59.0154 3.95586 59.3591 3.95586ZM59.2227 5.0779C58.7172 5.0779 58.2674 5.20426 57.8732 5.45697C57.4891 5.70968 57.1858 6.05337 56.9634 6.48803C56.7511 6.92269 56.645 7.42306 56.645 7.98913C56.645 8.5451 56.7511 9.04547 56.9634 9.49024C57.1858 9.93501 57.4891 10.2838 57.8732 10.5365C58.2674 10.7892 58.7172 10.9155 59.2227 10.9155C59.7281 10.9155 60.1729 10.7892 60.557 10.5365C60.9411 10.2838 61.2444 9.93501 61.4667 9.49024C61.6891 9.04547 61.8003 8.5451 61.8003 7.98913C61.8003 7.42306 61.6891 6.92269 61.4667 6.48803C61.2444 6.05337 60.9411 5.70968 60.557 5.45697C60.1729 5.20426 59.7281 5.0779 59.2227 5.0779Z" fill="#6A1FE6"/>
<path d="M1.01278 11.9162C0.830831 11.9162 0.679204 11.8556 0.557903 11.7343C0.44671 11.613 0.391113 11.4664 0.391113 11.2946V1.90888C0.391113 1.73703 0.44671 1.59551 0.557903 1.48432C0.679204 1.36302 0.825777 1.30237 0.99762 1.30237H6.31972C6.49157 1.30237 6.63814 1.35797 6.75944 1.46916C6.88074 1.58035 6.94139 1.72187 6.94139 1.89371C6.94139 2.05545 6.88074 2.19191 6.75944 2.30311C6.63814 2.4143 6.49157 2.4699 6.31972 2.4699H1.54348L1.63445 2.34859V6.06345L1.55864 5.89666H5.6374C5.80924 5.89666 5.95582 5.95731 6.07712 6.07861C6.19842 6.18981 6.25907 6.33132 6.25907 6.50317C6.25907 6.65479 6.19842 6.79126 6.07712 6.91256C5.95582 7.02375 5.80924 7.07935 5.6374 7.07935H1.52831L1.63445 6.94289V11.2946C1.63445 11.4664 1.5738 11.613 1.4525 11.7343C1.3312 11.8556 1.18463 11.9162 1.01278 11.9162Z" fill="#D752B2"/>
<path d="M12.154 12.0679C11.3454 12.0679 10.6378 11.896 10.0313 11.5523C9.42475 11.2087 8.94966 10.7386 8.60597 10.1422C8.27239 9.5357 8.1056 8.83822 8.1056 8.04976C8.1056 7.17033 8.27744 6.4223 8.62113 5.80568C8.97493 5.17896 9.42981 4.70386 9.98577 4.38039C10.5518 4.04681 11.1482 3.88002 11.775 3.88002C12.24 3.88002 12.6898 3.96595 13.1244 4.13779C13.5591 4.30963 13.9432 4.56234 14.2768 4.89592C14.6104 5.21939 14.8783 5.61362 15.0804 6.07861C15.2826 6.53349 15.3887 7.04397 15.3988 7.61004C15.3988 7.77178 15.3382 7.90824 15.2169 8.01944C15.0956 8.13063 14.9541 8.18623 14.7923 8.18623H8.80308L8.53016 7.14H14.3678L14.1252 7.35228V7.0187C14.0848 6.60425 13.9432 6.25046 13.7006 5.95731C13.4681 5.65406 13.18 5.42156 12.8364 5.25983C12.5028 5.09809 12.149 5.01723 11.775 5.01723C11.4717 5.01723 11.1685 5.07282 10.8652 5.18401C10.5721 5.2851 10.3042 5.45694 10.0616 5.69955C9.82909 5.93204 9.63703 6.23529 9.4854 6.60931C9.34389 6.98332 9.27313 7.43315 9.27313 7.95879C9.27313 8.54508 9.38937 9.06061 9.62187 9.50538C9.86447 9.95015 10.1981 10.3039 10.6226 10.5668C11.0472 10.8195 11.5425 10.9458 12.1085 10.9458C12.4623 10.9458 12.7707 10.9003 13.0335 10.8094C13.2963 10.7184 13.5237 10.6072 13.7158 10.4758C13.9079 10.3343 14.0696 10.1928 14.201 10.0512C14.3324 9.96026 14.4588 9.91477 14.5801 9.91477C14.7317 9.91477 14.853 9.96531 14.944 10.0664C15.0451 10.1675 15.0956 10.2888 15.0956 10.4303C15.0956 10.6021 15.0147 10.7538 14.853 10.8852C14.57 11.1985 14.1858 11.4765 13.7006 11.7191C13.2154 11.9516 12.6999 12.0679 12.154 12.0679Z" fill="#D752B2"/>
<path d="M20.8459 12.0679C20.0372 12.0679 19.3297 11.896 18.7232 11.5523C18.1166 11.2087 17.6415 10.7386 17.2979 10.1422C16.9643 9.5357 16.7975 8.83822 16.7975 8.04976C16.7975 7.17033 16.9693 6.4223 17.313 5.80568C17.6668 5.17896 18.1217 4.70386 18.6777 4.38039C19.2437 4.04681 19.8401 3.88002 20.4669 3.88002C20.9318 3.88002 21.3817 3.96595 21.8163 4.13779C22.251 4.30963 22.6351 4.56234 22.9687 4.89592C23.3023 5.21939 23.5702 5.61362 23.7723 6.07861C23.9745 6.53349 24.0806 7.04397 24.0907 7.61004C24.0907 7.77178 24.0301 7.90824 23.9088 8.01944C23.7875 8.13063 23.646 8.18623 23.4842 8.18623H17.495L17.222 7.14H23.0597L22.8171 7.35228V7.0187C22.7766 6.60425 22.6351 6.25046 22.3925 5.95731C22.16 5.65406 21.8719 5.42156 21.5282 5.25983C21.1947 5.09809 20.8409 5.01723 20.4669 5.01723C20.1636 5.01723 19.8604 5.07282 19.5571 5.18401C19.264 5.2851 18.9961 5.45694 18.7535 5.69955C18.521 5.93204 18.3289 6.23529 18.1773 6.60931C18.0358 6.98332 17.965 7.43315 17.965 7.95879C17.965 8.54508 18.0813 9.06061 18.3138 9.50538C18.5564 9.95015 18.8899 10.3039 19.3145 10.5668C19.739 10.8195 20.2344 10.9458 20.8004 10.9458C21.1542 10.9458 21.4625 10.9003 21.7254 10.8094C21.9882 10.7184 22.2156 10.6072 22.4077 10.4758C22.5997 10.3343 22.7615 10.1928 22.8929 10.0512C23.0243 9.96026 23.1507 9.91477 23.272 9.91477C23.4236 9.91477 23.5449 9.96531 23.6359 10.0664C23.7369 10.1675 23.7875 10.2888 23.7875 10.4303C23.7875 10.6021 23.7066 10.7538 23.5449 10.8852C23.2618 11.1985 22.8777 11.4765 22.3925 11.7191C21.9073 11.9516 21.3918 12.0679 20.8459 12.0679Z" fill="#D752B2"/>
<path d="M32.3732 0.695862C32.5451 0.695862 32.6866 0.756512 32.7978 0.877813C32.9191 0.989007 32.9797 1.13053 32.9797 1.30237V11.2946C32.9797 11.4664 32.9191 11.613 32.7978 11.7343C32.6866 11.8556 32.5451 11.9162 32.3732 11.9162C32.1913 11.9162 32.0447 11.8556 31.9335 11.7343C31.8223 11.613 31.7667 11.4664 31.7667 11.2946V9.85412L32.0548 9.74798C32.0548 9.99058 31.979 10.2483 31.8274 10.5213C31.6758 10.7841 31.4685 11.0318 31.2057 11.2642C30.9429 11.4967 30.6295 11.6888 30.2656 11.8404C29.9118 11.9921 29.5277 12.0679 29.1133 12.0679C28.436 12.0679 27.8194 11.891 27.2634 11.5372C26.7176 11.1834 26.2829 10.6982 25.9594 10.0816C25.6461 9.46494 25.4894 8.76241 25.4894 7.97395C25.4894 7.17538 25.6461 6.46779 25.9594 5.85117C26.2829 5.23456 26.7176 4.75441 27.2634 4.41072C27.8093 4.05692 28.4158 3.88002 29.0829 3.88002C29.5075 3.88002 29.9068 3.95078 30.2808 4.0923C30.6548 4.23382 30.9783 4.42588 31.2512 4.66848C31.5342 4.91109 31.7566 5.17896 31.9184 5.47211C32.0801 5.76525 32.161 6.0584 32.161 6.35154L31.7667 6.26056V1.30237C31.7667 1.13053 31.8223 0.989007 31.9335 0.877813C32.0447 0.756512 32.1913 0.695862 32.3732 0.695862ZM29.2497 10.9458C29.7551 10.9458 30.1999 10.8195 30.584 10.5668C30.9783 10.3039 31.2815 9.95015 31.4938 9.50538C31.7162 9.0505 31.8274 8.54002 31.8274 7.97395C31.8274 7.39777 31.7162 6.88729 31.4938 6.44252C31.2815 5.99775 30.9783 5.649 30.584 5.39629C30.1999 5.13347 29.7551 5.00206 29.2497 5.00206C28.7544 5.00206 28.3096 5.13347 27.9154 5.39629C27.5313 5.649 27.228 5.99775 27.0056 6.44252C26.7833 6.88729 26.6721 7.39777 26.6721 7.97395C26.6721 8.52991 26.7833 9.03534 27.0056 9.49022C27.228 9.93499 27.5313 10.2888 27.9154 10.5516C28.3096 10.8144 28.7544 10.9458 29.2497 10.9458Z" fill="#D752B2"/>
</svg>
