<svg width="51" height="51" viewBox="0 0 51 51" fill="none" xmlns="http://www.w3.org/2000/svg">
<path d="M22.7118 38.3408C22.1635 37.3912 20.7119 37.7801 20.7119 38.8767L20.7119 44.0713C20.7119 46.5464 23.3913 48.0933 25.5348 46.8558L47.2379 34.3255C49.3814 33.0879 49.3814 29.994 47.2379 28.7564L25.5348 16.2261C23.3913 14.9886 20.7119 16.5355 20.7119 19.0106L20.7119 23.872C20.7119 24.0602 20.7614 24.245 20.8554 24.4079V24.4079C21.4037 25.3575 22.8554 24.9686 22.8554 23.872L22.8554 19.0106C22.8554 18.1856 23.7485 17.6699 24.463 18.0825L46.1661 30.6128C46.8806 31.0253 46.8806 32.0566 46.1661 32.4691L24.463 44.9994C23.7485 45.4119 22.8554 44.8963 22.8554 44.0713L22.8554 38.8767C22.8554 38.6885 22.8058 38.5037 22.7118 38.3408V38.3408Z" fill="#6A1FE6"/>
<path d="M27.9769 12.7239C28.5252 13.6735 29.9768 13.2845 29.9768 12.188L29.9768 6.99344C29.9768 4.51832 27.2974 2.97136 25.1539 4.20892L3.45078 16.7392C1.30726 17.9768 1.30727 21.0707 3.45078 22.3083L25.1539 34.8386C27.2974 36.0761 29.9768 34.5292 29.9768 32.0541L29.9768 27.1927C29.9768 27.0045 29.9273 26.8197 29.8332 26.6568V26.6568C29.285 25.7072 27.8333 26.0961 27.8333 27.1927L27.8333 32.0541C27.8333 32.8791 26.9402 33.3947 26.2257 32.9822L4.52255 20.4519C3.80804 20.0394 3.80804 19.0081 4.52254 18.5956L26.2257 6.06527C26.9402 5.65275 27.8333 6.1684 27.8333 6.99344L27.8333 12.188C27.8333 12.3762 27.8828 12.561 27.9769 12.7239V12.7239Z" fill="#D752B2"/>
</svg>
