<svg width="32" height="32" viewBox="0 0 32 32" fill="none" xmlns="http://www.w3.org/2000/svg">
<path fill-rule="evenodd" clip-rule="evenodd" d="M16.3455 13.5077L28.975 0.876081C29.2974 0.553664 29.7236 0.392456 30.1476 0.392456C31.0398 0.392456 31.8039 1.10796 31.8039 2.0465C31.8039 2.47271 31.6427 2.89671 31.3202 3.22133L18.6886 15.8508L31.318 28.4802C31.6427 28.8049 31.8039 29.2289 31.8039 29.6529C31.8039 30.5958 31.0332 31.3091 30.1476 31.3091C29.7236 31.3091 29.2974 31.1479 28.975 30.8255L16.3455 18.196L3.71608 30.8255C3.39367 31.1479 2.96746 31.3091 2.54346 31.3091C1.65792 31.3091 0.887207 30.5958 0.887207 29.6529C0.887207 29.2289 1.04841 28.8049 1.37304 28.4802L14.0025 15.8508L1.37083 3.22133C1.04842 2.89671 0.887207 2.47271 0.887207 2.0465C0.887207 1.10796 1.65129 0.392456 2.54346 0.392456C2.96746 0.392456 3.39367 0.553664 3.71608 0.876081L16.3455 13.5077Z" fill="#FF0E35"/>
</svg>
