<svg width="86" height="88" viewBox="0 0 86 88" fill="none" xmlns="http://www.w3.org/2000/svg">
<path d="M71.6666 44.4518V80.7018H14.3333V44.4518" stroke="#D752B2" stroke-width="3" stroke-linecap="round" stroke-linejoin="round"/>
<path d="M78.8334 26.3268H7.16669V44.4518H78.8334V26.3268Z" stroke="#D752B2" stroke-width="3" stroke-linecap="round" stroke-linejoin="round"/>
<path d="M43 80.7018V26.3268" stroke="#D752B2" stroke-width="3" stroke-linecap="round" stroke-linejoin="round"/>
<path d="M43 26.3268H26.875C24.4991 26.3268 22.2205 25.372 20.5405 23.6725C18.8605 21.9729 17.9167 19.6679 17.9167 17.2643C17.9167 14.8608 18.8605 12.5557 20.5405 10.8562C22.2205 9.15664 24.4991 8.20184 26.875 8.20184C39.4167 8.20184 43 26.3268 43 26.3268Z" stroke="#D752B2" stroke-width="3" stroke-linecap="round" stroke-linejoin="round"/>
<path d="M43 26.3268H59.125C61.5009 26.3268 63.7795 25.372 65.4595 23.6725C67.1395 21.9729 68.0833 19.6679 68.0833 17.2643C68.0833 14.8608 67.1395 12.5557 65.4595 10.8562C63.7795 9.15664 61.5009 8.20184 59.125 8.20184C46.5833 8.20184 43 26.3268 43 26.3268Z" stroke="#D752B2" stroke-width="3" stroke-linecap="round" stroke-linejoin="round"/>
</svg>
