<svg width="40" height="36" viewBox="0 0 40 36" fill="none" xmlns="http://www.w3.org/2000/svg">
<path d="M28.7979 3.55295C32.5873 3.55295 35.9361 6.04107 35.9361 11.0491C35.9361 18.9446 25.5509 24.2486 20.0227 30.0361C14.4944 24.2486 4.1108 18.9462 4.1108 11.0507C4.1108 6.19061 7.30527 3.55295 11.249 3.55295C16.308 3.55295 18.9584 9.35008 20.0227 12.0036C21.0838 9.35326 23.7342 3.55295 28.7979 3.55295ZM28.7979 0.371216C25.3393 0.371216 21.884 2.06072 20.0227 5.81039C18.1614 2.06072 14.706 0.371216 11.249 0.371216C5.8353 0.371216 0.933838 4.17339 0.933838 11.0125C0.933838 22.5781 16.6882 28.4134 20.0227 35.3703C23.3571 28.4134 39.1131 22.5781 39.1131 11.0125C39.1131 3.71681 33.6819 0.371216 28.7979 0.371216Z" fill="#D752B2"/>
</svg>
