<svg width="24" height="25" viewBox="0 0 24 25" fill="none" xmlns="http://www.w3.org/2000/svg">
<g clip-path="url(#clip0_1185_198)">
<path d="M12.124 3.5625C17.4083 3.5625 21.7074 7.1545 21.7074 11.5695C21.7074 16.4865 16.7777 19.5305 12.2103 19.5305C10.354 19.5305 8.96727 19.1335 7.99936 18.8865C7.04102 19.4995 6.47177 19.9235 3.90536 20.7065C4.41807 19.3335 4.59727 17.9585 4.48132 16.4415C3.67919 15.4415 2.54069 14.0415 2.54069 11.5695C2.54069 7.1545 6.83977 3.5625 12.124 3.5625V3.5625ZM12.124 1.5625C6.05011 1.5625 0.624023 5.7885 0.624023 11.5695C0.624023 13.6195 1.33223 15.6325 2.58573 17.1945C2.63844 19.0245 1.60536 21.6505 0.675773 23.5625C3.16936 23.0925 6.71423 22.0545 8.32136 21.0265C9.67931 21.3715 10.9798 21.5295 12.2112 21.5295C19.0001 21.5295 23.625 16.6925 23.625 11.5685C23.624 5.7575 18.1606 1.5625 12.124 1.5625V1.5625Z" fill="#323232"/>
</g>
<defs>
<clipPath id="clip0_1185_198">
<rect width="23" height="24" fill="white" transform="translate(0.624023 0.5625)"/>
</clipPath>
</defs>
</svg>
