<svg width="14" height="13" viewBox="0 0 14 13" fill="none" xmlns="http://www.w3.org/2000/svg">
<path d="M6.41673 12.8597H1.68496V6.55069H6.41673V12.8597ZM6.41673 3.39618H0.633453V5.49919H6.41673V3.39618ZM7.46824 12.8597H12.2V6.55069H7.46824V12.8597ZM7.46824 3.39618V5.49919H13.2515V3.39618H7.46824ZM9.76525 0.241661C8.21586 0.241661 7.30946 2.0697 6.94249 2.87042H9.75263C11.5891 2.87042 11.6085 0.241661 9.76525 0.241661ZM9.34675 2.14541H8.27264C8.66117 1.55604 9.0292 1.11178 9.50395 1.11178C10.1201 1.11178 10.1496 2.14541 9.34675 2.14541ZM4.13234 2.87042H6.94249C6.57551 2.0697 5.66911 0.241661 4.11972 0.241661C2.27643 0.241661 2.29588 2.87042 4.13234 2.87042ZM4.38102 1.11178C4.85577 1.11178 5.2238 1.55604 5.61233 2.14541H4.53822C3.73539 2.14541 3.76484 1.11178 4.38102 1.11178Z" fill="#CFC146"/>
</svg>
