<svg width="27" height="27" viewBox="0 0 27 27" fill="none" xmlns="http://www.w3.org/2000/svg">
<path d="M12.5417 26.0631H3.03937V13.3932H12.5417V26.0631ZM12.5417 7.05831H0.927734V11.2816H12.5417V7.05831ZM14.6534 26.0631H24.1558V13.3932H14.6534V26.0631ZM14.6534 7.05831V11.2816H26.2674V7.05831H14.6534ZM19.2663 0.723389C16.1548 0.723389 14.3345 4.39447 13.5976 6.00249H19.2409C22.9289 6.00249 22.968 0.723389 19.2663 0.723389ZM18.4258 4.54651H16.2688C17.049 3.36294 17.7881 2.47077 18.7415 2.47077C19.9789 2.47077 20.0381 4.54651 18.4258 4.54651ZM7.95421 6.00249H13.5976C12.8606 4.39447 11.0404 0.723389 7.92887 0.723389C4.22717 0.723389 4.26624 6.00249 7.95421 6.00249ZM8.45362 2.47077C9.40702 2.47077 10.1461 3.36294 10.9263 4.54651H8.76931C7.15707 4.54651 7.21619 2.47077 8.45362 2.47077Z" fill="#D752B2"/>
</svg>
