<svg width="51" height="51" viewBox="0 0 51 51" fill="none" xmlns="http://www.w3.org/2000/svg">
<path d="M25.0482 37.3686C25.0482 37.3686 32.717 29.3285 35.7038 26.1982C35.9542 25.9376 36.0786 25.595 36.0786 25.2523C36.0786 24.9096 35.9542 24.567 35.7038 24.3064C32.7187 21.1761 25.0516 13.1396 25.0516 13.1396C24.8046 12.8808 24.4792 12.7523 24.1537 12.7523C23.8283 12.7541 23.5012 12.8844 23.2507 13.1467C22.7515 13.6697 22.7498 14.5138 23.2439 15.0332L31.722 23.9138L1.35646 23.9138C0.65109 23.9138 0.0786153 24.5135 0.0786153 25.2523C0.0786152 25.9912 0.651089 26.5908 1.35646 26.5908L31.722 26.5908L23.2405 35.4768C22.7481 35.9926 22.7515 36.835 23.2507 37.3579C23.5012 37.6202 23.8283 37.7523 24.1537 37.7523C24.4792 37.7541 24.8012 37.6256 25.0482 37.3686Z" fill="#EBEBEB"/>
<path d="M47.4122 25.2523C47.4122 37.5253 37.8609 47.4745 26.0788 47.4745C17.4472 47.4745 10.0128 42.1346 6.65422 34.4532C6.4276 33.9349 5.92354 33.5857 5.35787 33.5857V33.5857C4.41876 33.5857 3.75907 34.5088 4.12677 35.3729C7.85644 44.138 16.2821 50.2523 26.0788 50.2523C39.3337 50.2523 50.0788 39.0594 50.0788 25.2523C50.0788 11.4452 39.3337 0.252319 26.0788 0.252319C16.2821 0.252319 7.85644 6.36666 4.12677 15.1317C3.75907 15.9959 4.41876 16.919 5.35787 16.919V16.919C5.92354 16.919 6.4276 16.5698 6.65422 16.0515C10.0128 8.37 17.4472 3.0301 26.0788 3.0301C37.8609 3.0301 47.4122 12.9793 47.4122 25.2523Z" fill="#323232"/>
</svg>
