<svg width="20" height="18" viewBox="0 0 20 18" fill="none" xmlns="http://www.w3.org/2000/svg">
<path fill-rule="evenodd" clip-rule="evenodd" d="M12.9731 12.2643C11.6408 13.3503 9.87694 14.0111 7.94369 14.0111C3.79298 14.0111 0.422852 10.9636 0.422852 7.2103C0.422852 3.457 3.79298 0.409546 7.94369 0.409546C12.0944 0.409546 15.4645 3.457 15.4645 7.2103C15.4645 8.95845 14.7338 10.5534 13.5329 11.7582L19.4229 17.0843L18.8631 17.5904L12.9731 12.2643ZM7.94369 1.12541C11.6574 1.12541 14.6729 3.85216 14.6729 7.2103C14.6729 10.5684 11.6574 13.2952 7.94369 13.2952C4.22998 13.2952 1.21452 10.5684 1.21452 7.2103C1.21452 3.85216 4.22998 1.12541 7.94369 1.12541Z" fill="#323232"/>
</svg>
