<svg width="14" height="13" viewBox="0 0 14 13" fill="none" xmlns="http://www.w3.org/2000/svg">
<path d="M6.88014 1.81895C9.77914 1.81895 12.1377 3.70745 12.1377 6.02865C12.1377 8.61377 9.43319 10.2142 6.92746 10.2142C5.90907 10.2142 5.14831 10.0054 4.6173 9.87558C4.09155 10.1979 3.77925 10.4208 2.37128 10.8324C2.65256 10.1106 2.75088 9.38768 2.68726 8.59011C2.24721 8.06436 1.62261 7.32831 1.62261 6.02865C1.62261 3.70745 3.98114 1.81895 6.88014 1.81895ZM6.88014 0.767441C3.54792 0.767441 0.571106 2.98927 0.571106 6.02865C0.571106 7.10644 0.959637 8.16478 1.64732 8.98601C1.67624 9.94813 1.10948 11.3288 0.599497 12.334C1.9675 12.0869 3.91226 11.5412 4.79395 11.0007C5.53894 11.1821 6.25239 11.2651 6.92798 11.2651C10.6524 11.2651 13.1897 8.72208 13.1897 6.02812C13.1892 2.97297 10.1919 0.767441 6.88014 0.767441Z" fill="#2BA6EB"/>
</svg>
